<svg xmlns="http://www.w3.org/2000/svg" version="1.1" xmlns:xlink="http://www.w3.org/1999/xlink" xmlns:svgjs="http://svgjs.dev/svgjs" width="1000" height="623" viewBox="0 0 1000 623"><g transform="matrix(1,0,0,1,-0.6060606060606233,0.2522267206477409)"><svg viewBox="0 0 396 247" data-background-color="#471aa0" preserveAspectRatio="xMidYMid meet" height="623" width="1000" xmlns="http://www.w3.org/2000/svg" xmlns:xlink="http://www.w3.org/1999/xlink"><g id="tight-bounds" transform="matrix(1,0,0,1,0.2400000000000091,-0.09999999999999432)"><svg viewBox="0 0 395.52 247.2" height="247.2" width="395.52"><g><svg></svg></g><g><svg viewBox="0 0 395.52 247.2" height="247.2" width="395.52"><g transform="matrix(1,0,0,1,84.28450384615384,47.215199999999996)"><svg viewBox="0 0 226.9509923076923 152.7696" height="152.7696" width="226.9509923076923"><g><svg viewBox="0 0 226.9509923076923 152.7696" height="152.7696" width="226.9509923076923"><g><svg viewBox="0 0 226.9509923076923 152.7696" height="152.7696" width="226.9509923076923"><g><svg viewBox="0 0 226.9509923076923 152.7696" height="152.7696" width="226.9509923076923"><g id="textblocktransform"><svg viewBox="0 0 226.9509923076923 152.7696" height="152.7696" width="226.9509923076923" id="textblock"><g><svg viewBox="0 0 226.9509923076923 152.7696" height="152.7696" width="226.9509923076923"><g transform="matrix(1,0,0,1,0,0)"><svg width="226.9509923076923" viewBox="4.079999923706055 -35.54999923706055 52.80000305175781 35.54999923706055" height="152.7696" data-palette-color="#ffffff"><path d="M9.94 0L9.94-13.55 15.97-13.55Q18.65-13.55 20.91-14.33 23.17-15.11 24.8-16.55L24.8-16.55Q26.44-17.97 27.34-19.96 28.25-21.95 28.25-24.41L28.25-24.41Q28.25-26.98 27.34-29.03 26.44-31.08 24.8-32.52L24.8-32.52Q23.17-33.96 20.91-34.74 18.65-35.52 15.97-35.55L15.97-35.55 4.08-35.55 4.08 0 9.94 0ZM15.97-18.33L9.94-18.33 9.94-30.76 15.97-30.76Q17.46-30.74 18.64-30.27 19.82-29.81 20.65-28.96L20.65-28.96Q21.48-28.1 21.91-26.94 22.34-25.78 22.34-24.37L22.34-24.37Q22.34-23.07 21.91-21.97 21.48-20.87 20.65-20.07L20.65-20.07Q19.82-19.26 18.64-18.81 17.46-18.36 15.97-18.33L15.97-18.33ZM52.05-26.9L52.05-26.9Q49.31-26.9 47.06-25.63 44.8-24.37 43.19-22.14L43.19-22.14 43.16-22.75 42.92-26.42 37.45-26.42 37.45 0 43.28 0 43.28-16.31Q43.75-17.48 44.43-18.38 45.11-19.29 46.09-19.87L46.09-19.87Q46.99-20.48 48.17-20.78 49.34-21.07 50.8-21.07L50.8-21.07Q52.1-21.07 53.4-20.92 54.71-20.78 56.05-20.48L56.05-20.48 56.88-26.25Q56.13-26.51 54.79-26.71 53.46-26.9 52.05-26.9Z" opacity="1" transform="matrix(1,0,0,1,0,0)" fill="#ffffff" class="wordmark-text-0" data-fill-palette-color="primary" id="text-0"></path></svg></g></svg></g></svg></g></svg></g></svg></g></svg></g></svg></g><path d="M128.934 41.215L128.934 0 376.134 0 376.134 247.2 128.934 247.2 128.934 205.985 142.711 205.985 142.711 233.423 362.357 233.423 362.357 13.777 142.711 13.777 142.711 41.215Z" fill="#ffffff" stroke="transparent" data-fill-palette-color="primary"></path></svg></g><defs></defs></svg><rect width="395.52" height="247.2" fill="none" stroke="none" visibility="hidden"></rect></g></svg></g></svg>